<?xml version="1.0" encoding="UTF-8"?>
<svg xmlns="http://www.w3.org/2000/svg" viewBox="0 0 470.2816 420.268">
  <defs>
    <style>
      .cls-1 {
        fill: #1d1d1b;
      }

      .cls-2 {
        fill: #3c3c3b;
        stroke: #3c3c3b;
      }

      .cls-2, .cls-3, .cls-4 {
        stroke-miterlimit: 10;
      }

      .cls-3 {
        fill: #706f6f;
        stroke: #706f6f;
      }

      .cls-4 {
        fill: #575756;
        stroke: #575756;
      }
    </style>
  </defs>
  <g id="Rechtecke">
    <rect class="cls-2" x="141.2457" y="397.2839" width="21.884" height="21.884"/>
    <rect class="cls-4" x="178.3872" y="397.2839" width="21.884" height="21.884"/>
    <rect class="cls-3" x="215.5287" y="397.2839" width="21.884" height="21.884"/>
    <g>
      <path class="cls-1" d="M254.1782,414.1259c0-.0244.0059-.0371.0186-.0371.0117,0,.0186-.0122.0186-.0371l4.5039-16.8628v-.0742c.123-.248.2148-.3784.2764-.3911.0615-.0122.1299-.043.2031-.0928l.0371-.0376c.0488-.0244.1348-.0371.2588-.0371h.0732c.2705,0,.4492.0688.5352.2046.0859.1367.1533.2549.2031.354l.0371.0371v.0371l4.5039,16.8628v.0742l1.3662,5.0249c0,.0508.0059.0879.0186.1123.0117.0244.0186.0615.0186.1123,0,.248-.0811.4531-.2402.6133-.1602.1621-.3633.2422-.6094.2422-.1973,0-.3691-.0488-.5166-.1484s-.2461-.248-.2959-.4473l-1.1807-4.4297h-7.7529l-1.1816,4.4297c-.0732.1992-.1904.3535-.3506.4648-.1602.1123-.3389.168-.5352.168-.2461,0-.4375-.0859-.5723-.2598-.1357-.1738-.2031-.373-.2031-.5957v-.1865l1.3662-5.1001ZM256.061,413.5307h6.8291l-3.3955-12.8052-3.4336,12.8052Z"/>
      <path class="cls-1" d="M270.8647,414.1259c0-.0244.0059-.0371.0186-.0371.0117,0,.0186-.0122.0186-.0371l4.5039-16.8628v-.0742c.123-.248.2148-.3784.2764-.3911.0615-.0122.1299-.043.2031-.0928l.0371-.0376c.0488-.0244.1348-.0371.2588-.0371h.0732c.2705,0,.4492.0688.5352.2046.0859.1367.1533.2549.2031.354l.0371.0371v.0371l4.5039,16.8628v.0742l1.3662,5.0249c0,.0508.0059.0879.0186.1123.0117.0244.0186.0615.0186.1123,0,.248-.0811.4531-.2402.6133-.1602.1621-.3633.2422-.6094.2422-.1973,0-.3691-.0488-.5166-.1484s-.2461-.248-.2959-.4473l-1.1807-4.4297h-7.7529l-1.1816,4.4297c-.0732.1992-.1904.3535-.3506.4648-.1602.1123-.3389.168-.5352.168-.2461,0-.4375-.0859-.5723-.2598-.1357-.1738-.2031-.373-.2031-.5957v-.1865l1.3662-5.1001ZM272.7475,413.5307h6.8291l-3.3955-12.8052-3.4336,12.8052Z"/>
      <path class="cls-1" d="M287.8833,418.5556h7.5684c.2217,0,.418.0811.5908.2422.1719.1616.2578.353.2578.5776,0,.248-.0859.4531-.2578.6133-.1729.1621-.3691.2422-.5908.2422h-8.3809c-.2461,0-.4492-.0801-.6084-.2422-.1602-.1602-.2402-.3652-.2402-.6133v-21.9629c0-.248.0801-.4526.2402-.6143.1592-.1611.3623-.2422.6084-.2422.2217,0,.4121.0811.5723.2422.1602.1616.2402.3662.2402.6143v21.1431Z"/>
      <path class="cls-1" d="M310.5503,396.5561c.2461,0,.4492.0811.6094.2422.1592.1616.2393.3662.2393.6143,0,.2231-.0801.4155-.2393.5767-.1602.1616-.3633.2422-.6094.2422h-9.2295v8.4497h5.8701c.2461,0,.4482.0874.6094.2607.1592.1738.2393.3721.2393.5957,0,.248-.0801.4531-.2393.6143-.1611.1616-.3633.2417-.6094.2417h-5.8701v10.1621h9.2295c.2461,0,.4492.0811.6094.2422.1592.1616.2393.353.2393.5776,0,.248-.0801.4531-.2393.6133-.1602.1621-.3633.2422-.6094.2422h-10.042c-.2461,0-.4492-.0801-.6084-.2422-.1602-.1602-.2402-.3652-.2402-.6133v-21.9629c0-.248.0801-.4526.2402-.6143.1592-.1611.3623-.2422.6084-.2422h10.042Z"/>
      <path class="cls-1" d="M314.7583,397.4125c0-.248.0801-.4526.2402-.6143.1592-.1611.3623-.2422.6084-.2422.3936,0,.6523.1738.7754.521l8.4541,18.4634v-18.1279c0-.248.0801-.4526.2402-.6143.1602-.1611.3506-.2422.5723-.2422.2461,0,.4492.0811.6094.2422.1592.1616.2393.3662.2393.6143v21.9629c0,.248-.0801.4531-.2393.6133-.1602.1621-.3633.2422-.6094.2422-.3936,0-.6523-.1855-.7754-.5586l-8.4541-18.4258v18.1289c0,.248-.0801.4531-.2402.6133-.1602.1621-.3506.2422-.5723.2422-.2461,0-.4492-.0801-.6084-.2422-.1602-.1602-.2402-.3652-.2402-.6133v-21.9629Z"/>
    </g>
  </g>
  <g id="S">
    <path class="cls-1" d="M244.9307,22.9344s-26.4363-2.9256-53.0156,7.1051v130.8116h43.2449l-.1059,202.8977-33.3682-49.8676v-12.094h-9.7707v14.8972l43.2449,64.4691,10.7641-16.0471v-214.0261h-44.2382V39.5941s13.3387-4.8879,33.4741-4.8899v7.9943l9.7707-.017v-19.7471Z"/>
  </g>
  <g id="Ebene_15">
    <path class="cls-1" d="M132.7497,228.0107c-54.7597-74.7234-16.398-159.4043,42.383-190.3263l-4.4831,12.8688-5.2876,7.0935c-67.1993,51.5981-46.1946,129.0874-32.6122,149.265v21.099Z"/>
    <g id="Ebene_13">
      <polygon class="cls-1" points="175.1327 37.6844 175.1327 291.6652 165.3619 277.0991 165.3619 160.8511 114.383 160.8511 111.3191 151.0803 165.3619 151.0803 165.3619 47.0632 175.1327 37.6844"/>
    </g>
  </g>
  <g id="Ebene_16">
    <path class="cls-1" d="M337.5319,228.0107c54.7597-74.7234,16.398-159.4043-42.383-190.3263l4.4831,12.8688,5.2876,7.0935c67.1993,51.5981,46.1946,129.0874,32.6122,149.265v21.099Z"/>
    <polygon class="cls-1" points="295.1489 37.6844 295.1489 291.6652 304.9197 277.0991 304.9197 160.8511 355.8987 160.8511 358.9625 151.0803 304.9197 151.0803 304.9197 47.0632 295.1489 37.6844"/>
  </g>
  <g id="T">
    <polygon class="cls-1" points="292.0002 111.77 230.3667 111.77 230.3667 121.5408 259.8987 121.5408 261.3619 342.0918 271.1327 327.5256 271.1327 121.5408 292.0002 121.5408 299.3457 121.5408 299.3457 111.77 292.0002 111.77"/>
  </g>
</svg>